# xmcd
#
# Track frame offsets:
#	150
#	19117
#	42061
#	64992
#	92753
#	125876
#	161553
#	173755
#	183837
#	195343
#	205062
#	216855
#
# Disc length: 2992 seconds
#
# Revision: 1
# Processed by: cddbd v1.5.2PL0 Copyright (c) Steve Scherf et al.
# Submitted via: audiograbber 1.83.01
#
DISCID=a20bae0c
DTITLE=John Lee Hooker/Earl Hooker - Family Matters
DYEAR=1900
DGENRE=Blues
TTITLE0=Feel Good
TTITLE1=Roll And Tumble
TTITLE2=Baby Don't Do Me Wrong
TTITLE3=Reconsideration Blues
TTITLE4=Never Get Out Of These Blues Alive
TTITLE5=T.B. Sheets
TTITLE6=Blue Guitar
TTITLE7=Universal Rock
TTITLE8=Rockin' With The Kid
TTITLE9=Off The Hook
TTITLE10=The Leading Brand
TTITLE11=Blues in D Natural
EXTD=
EXTT0=
EXTT1=
EXTT2=
EXTT3=
EXTT4=
EXTT5=
EXTT6=
EXTT7=
EXTT8=
EXTT9=
EXTT10=
EXTT11=
PLAYORDER=
